<svg xmlns="http://www.w3.org/2000/svg" xmlns:xlink="http://www.w3.org/1999/xlink" fill="none" version="1.1" width="54" height="54" viewBox="0 0 54 54"><g><g><rect x="0.5" y="0.5" width="53" height="53" rx="9.5" fill-opacity="0" stroke-opacity="0.15000000596046448" stroke="#FFFFFF" fill="none" stroke-width="1"/></g><g><path d="M17,13Q17,13.19651,16.98074,13.39207Q16.96148,13.58763,16.92314,13.78036Q16.8848,13.97309,16.827759999999998,14.16114Q16.77072,14.34918,16.695520000000002,14.53073Q16.62032,14.71228,16.52768,14.88559Q16.43505,15.05889,16.325879999999998,15.22228Q16.2167,15.385670000000001,16.09204,15.537569999999999Q15.96738,15.68948,15.82843,15.82843Q15.68948,15.96738,15.537569999999999,16.09204Q15.385670000000001,16.2167,15.22228,16.325879999999998Q15.05889,16.43505,14.88559,16.52768Q14.71228,16.62032,14.53073,16.695520000000002Q14.34918,16.77072,14.16114,16.827759999999998Q13.97309,16.8848,13.78036,16.92314Q13.58763,16.96148,13.39207,16.98074Q13.19651,17,13,17Q12.80349,17,12.60793,16.98074Q12.41237,16.96148,12.21964,16.92314Q12.02691,16.8848,11.83886,16.827759999999998Q11.65082,16.77072,11.46927,16.695520000000002Q11.28772,16.62032,11.11441,16.52768Q10.94111,16.43505,10.77772,16.325879999999998Q10.61433,16.2167,10.46243,16.09204Q10.31052,15.96738,10.17157,15.82843Q10.03262,15.68948,9.907958,15.537569999999999Q9.783295,15.385670000000001,9.674121,15.22228Q9.564948,15.05889,9.472315,14.88559Q9.379682,14.71228,9.304482,14.53073Q9.229282,14.34918,9.172239,14.16114Q9.115196,13.97309,9.0768589,13.78036Q9.0385222,13.58763,9.0192611,13.39207Q9,13.19651,9,13Q9,12.80349,9.0192611,12.60793Q9.0385222,12.41237,9.0768589,12.21964Q9.115196,12.02691,9.172239,11.83886Q9.229282,11.65082,9.304482,11.46927Q9.379682,11.28772,9.472315,11.11441Q9.564948,10.94111,9.674121,10.77772Q9.783295,10.61433,9.907958,10.46243Q10.03262,10.31052,10.17157,10.17157Q10.31052,10.03262,10.46243,9.907958Q10.61433,9.783295,10.77772,9.674121Q10.94111,9.564948,11.11441,9.472315Q11.28772,9.379682,11.46927,9.304482Q11.65082,9.229282,11.83886,9.172239Q12.02691,9.115196,12.21964,9.0768589Q12.41237,9.0385222,12.60793,9.0192611Q12.80349,9,13,9Q13.19651,9,13.39207,9.0192611Q13.58763,9.0385222,13.78036,9.0768589Q13.97309,9.115196,14.16114,9.172239Q14.34918,9.229282,14.53073,9.304482Q14.71228,9.379682,14.88559,9.472315Q15.05889,9.564948,15.22228,9.674121Q15.385670000000001,9.783295,15.537569999999999,9.907958Q15.68948,10.03262,15.82843,10.17157Q15.96738,10.31052,16.09204,10.46243Q16.2167,10.61433,16.325879999999998,10.77772Q16.43505,10.94111,16.52768,11.11441Q16.62032,11.28772,16.695520000000002,11.46927Q16.77072,11.65082,16.827759999999998,11.83886Q16.8848,12.02691,16.92314,12.21964Q16.96148,12.41237,16.98074,12.60793Q17,12.80349,17,13ZM16,13Q16,12.85262,15.98555,12.70595Q15.97111,12.559280000000001,15.942350000000001,12.41473Q15.913599999999999,12.27018,15.87082,12.12915Q15.82804,11.988109999999999,15.77164,11.85195Q15.71524,11.71579,15.64576,11.58581Q15.57629,11.45583,15.49441,11.33329Q15.41253,11.21075,15.31903,11.096820000000001Q15.22553,10.98289,15.12132,10.87868Q15.017109999999999,10.77447,14.903179999999999,10.68097Q14.78925,10.58747,14.66671,10.50559Q14.544170000000001,10.42371,14.41419,10.35424Q14.28421,10.28476,14.14805,10.22836Q14.011890000000001,10.17196,13.87085,10.12918Q13.72982,10.0864,13.585270000000001,10.05764Q13.440719999999999,10.02889,13.29405,10.01445Q13.14738,10,13,10Q12.85262,10,12.70595,10.01445Q12.559280000000001,10.02889,12.41473,10.05764Q12.27018,10.0864,12.12915,10.12918Q11.988109999999999,10.17196,11.85195,10.22836Q11.71579,10.28476,11.58581,10.35424Q11.45583,10.42371,11.33329,10.50559Q11.21075,10.58747,11.096820000000001,10.68097Q10.98289,10.77447,10.87868,10.87868Q10.77447,10.98289,10.68097,11.096820000000001Q10.58747,11.21075,10.50559,11.33329Q10.42371,11.45583,10.35424,11.58581Q10.28476,11.71579,10.22836,11.85195Q10.17196,11.988109999999999,10.12918,12.12915Q10.0864,12.27018,10.05764,12.41473Q10.02889,12.559280000000001,10.01445,12.70595Q10,12.85262,10,13Q10,13.14738,10.01445,13.29405Q10.02889,13.440719999999999,10.05764,13.585270000000001Q10.0864,13.72982,10.12918,13.87085Q10.17196,14.011890000000001,10.22836,14.14805Q10.28476,14.28421,10.35424,14.41419Q10.42371,14.544170000000001,10.50559,14.66671Q10.58747,14.78925,10.68097,14.903179999999999Q10.77447,15.017109999999999,10.87868,15.12132Q10.98289,15.22553,11.096820000000001,15.31903Q11.21075,15.41253,11.33329,15.49441Q11.45583,15.57629,11.58581,15.64576Q11.71579,15.71524,11.85195,15.77164Q11.988109999999999,15.82804,12.12915,15.87082Q12.27018,15.913599999999999,12.41473,15.94236Q12.559280000000001,15.97111,12.70595,15.98555Q12.85262,16,13,16Q13.14738,16,13.29405,15.98555Q13.440719999999999,15.97111,13.585270000000001,15.942350000000001Q13.72982,15.913599999999999,13.87085,15.87082Q14.011890000000001,15.82804,14.14805,15.77164Q14.28421,15.71524,14.41419,15.64576Q14.544170000000001,15.57629,14.66671,15.49441Q14.78925,15.41253,14.903179999999999,15.31903Q15.017109999999999,15.22553,15.12132,15.12132Q15.22553,15.017109999999999,15.31903,14.903179999999999Q15.41253,14.78925,15.49441,14.66671Q15.57629,14.544170000000001,15.64576,14.41419Q15.71524,14.28421,15.77164,14.14805Q15.82804,14.011890000000001,15.87082,13.87085Q15.913599999999999,13.72982,15.94236,13.585270000000001Q15.97111,13.440719999999999,15.98555,13.29405Q16,13.14738,16,13Z" fill="#FFFFFF" fill-opacity="0.15000000596046448"/></g><g><path d="M17,27Q17,27.19651,16.98074,27.39207Q16.96148,27.58763,16.92314,27.78036Q16.8848,27.97309,16.827759999999998,28.16114Q16.77072,28.34918,16.695520000000002,28.53073Q16.62032,28.71228,16.52768,28.88559Q16.43505,29.058889999999998,16.325879999999998,29.222279999999998Q16.2167,29.38567,16.09204,29.53757Q15.96738,29.68948,15.82843,29.82843Q15.68948,29.96738,15.537569999999999,30.09204Q15.385670000000001,30.2167,15.22228,30.325879999999998Q15.05889,30.43505,14.88559,30.52768Q14.71228,30.62032,14.53073,30.695520000000002Q14.34918,30.77072,14.16114,30.827759999999998Q13.97309,30.8848,13.78036,30.92314Q13.58763,30.96148,13.39207,30.98074Q13.19651,31,13,31Q12.80349,31,12.60793,30.98074Q12.41237,30.96148,12.21964,30.92314Q12.02691,30.8848,11.83886,30.827759999999998Q11.65082,30.77072,11.46927,30.695520000000002Q11.28772,30.62032,11.11441,30.52768Q10.94111,30.43505,10.77772,30.325879999999998Q10.61433,30.2167,10.46243,30.09204Q10.31052,29.96738,10.17157,29.82843Q10.03262,29.68948,9.907958,29.53757Q9.783295,29.38567,9.674121,29.222279999999998Q9.564948,29.058889999999998,9.472315,28.88559Q9.379682,28.71228,9.304482,28.53073Q9.229282,28.34918,9.172239,28.16114Q9.115196,27.97309,9.0768589,27.78036Q9.0385222,27.58763,9.0192611,27.39207Q9,27.19651,9,27Q9,26.80349,9.0192611,26.60793Q9.0385222,26.41237,9.0768589,26.21964Q9.115196,26.02691,9.172239,25.83886Q9.229282,25.65082,9.304482,25.46927Q9.379682,25.28772,9.472315,25.11441Q9.564948,24.94111,9.674121,24.77772Q9.783295,24.61433,9.907958,24.46243Q10.03262,24.31052,10.17157,24.17157Q10.31052,24.03262,10.46243,23.907958Q10.61433,23.783295,10.77772,23.674121Q10.94111,23.564948,11.11441,23.472315Q11.28772,23.379682,11.46927,23.304482Q11.65082,23.229282,11.83886,23.172239Q12.02691,23.115196,12.21964,23.0768589Q12.41237,23.0385222,12.60793,23.0192611Q12.80349,23,13,23Q13.19651,23,13.39207,23.0192611Q13.58763,23.0385222,13.78036,23.0768589Q13.97309,23.115196,14.16114,23.172239Q14.34918,23.229282,14.53073,23.304482Q14.71228,23.379682,14.88559,23.472315Q15.05889,23.564948,15.22228,23.674121Q15.385670000000001,23.783295,15.537569999999999,23.907958Q15.68948,24.03262,15.82843,24.17157Q15.96738,24.31052,16.09204,24.46243Q16.2167,24.61433,16.325879999999998,24.77772Q16.43505,24.94111,16.52768,25.11441Q16.62032,25.28772,16.695520000000002,25.46927Q16.77072,25.65082,16.827759999999998,25.83886Q16.8848,26.02691,16.92314,26.21964Q16.96148,26.41237,16.98074,26.60793Q17,26.80349,17,27ZM16,27Q16,26.85262,15.98555,26.70595Q15.97111,26.55928,15.942350000000001,26.41473Q15.913599999999999,26.27018,15.87082,26.12915Q15.82804,25.98811,15.77164,25.85195Q15.71524,25.71579,15.64576,25.58581Q15.57629,25.45583,15.49441,25.333289999999998Q15.41253,25.21075,15.31903,25.09682Q15.22553,24.98289,15.12132,24.87868Q15.017109999999999,24.77447,14.903179999999999,24.68097Q14.78925,24.58747,14.66671,24.50559Q14.544170000000001,24.42371,14.41419,24.35424Q14.28421,24.28476,14.14805,24.22836Q14.011890000000001,24.17196,13.87085,24.12918Q13.72982,24.0864,13.585270000000001,24.05764Q13.440719999999999,24.02889,13.29405,24.01445Q13.14738,24,13,24Q12.85262,24,12.70595,24.01445Q12.559280000000001,24.02889,12.41473,24.05764Q12.27018,24.0864,12.12915,24.12918Q11.988109999999999,24.17196,11.85195,24.22836Q11.71579,24.28476,11.58581,24.35424Q11.45583,24.42371,11.33329,24.50559Q11.21075,24.58747,11.096820000000001,24.68097Q10.98289,24.77447,10.87868,24.87868Q10.77447,24.98289,10.68097,25.09682Q10.58747,25.21075,10.50559,25.333289999999998Q10.42371,25.45583,10.35424,25.58581Q10.28476,25.71579,10.22836,25.85195Q10.17196,25.98811,10.12918,26.12915Q10.0864,26.27018,10.05764,26.41473Q10.02889,26.55928,10.01445,26.70595Q10,26.85262,10,27Q10,27.14738,10.01445,27.29405Q10.02889,27.44072,10.05764,27.58527Q10.0864,27.72982,10.12918,27.87085Q10.17196,28.01189,10.22836,28.148049999999998Q10.28476,28.28421,10.35424,28.414189999999998Q10.42371,28.54417,10.50559,28.666710000000002Q10.58747,28.78925,10.68097,28.90318Q10.77447,29.01711,10.87868,29.12132Q10.98289,29.22553,11.096820000000001,29.319029999999998Q11.21075,29.41253,11.33329,29.494410000000002Q11.45583,29.57629,11.58581,29.64576Q11.71579,29.71524,11.85195,29.771639999999998Q11.988109999999999,29.82804,12.12915,29.870820000000002Q12.27018,29.9136,12.41473,29.94236Q12.559280000000001,29.97111,12.70595,29.98555Q12.85262,30,13,30Q13.14738,30,13.29405,29.98555Q13.440719999999999,29.97111,13.585270000000001,29.94235Q13.72982,29.9136,13.87085,29.870820000000002Q14.011890000000001,29.82804,14.14805,29.771639999999998Q14.28421,29.71524,14.41419,29.64576Q14.544170000000001,29.57629,14.66671,29.494410000000002Q14.78925,29.41253,14.903179999999999,29.319029999999998Q15.017109999999999,29.22553,15.12132,29.12132Q15.22553,29.01711,15.31903,28.90318Q15.41253,28.78925,15.49441,28.666710000000002Q15.57629,28.54417,15.64576,28.414189999999998Q15.71524,28.28421,15.77164,28.148049999999998Q15.82804,28.01189,15.87082,27.87085Q15.913599999999999,27.72982,15.94236,27.58527Q15.97111,27.44072,15.98555,27.29405Q16,27.14738,16,27Z" fill="#FFFFFF" fill-opacity="0.15000000596046448"/></g><g><path d="M17,41Q17,41.19651,16.98074,41.392070000000004Q16.96148,41.58763,16.92314,41.78036Q16.8848,41.97309,16.827759999999998,42.16114Q16.77072,42.34918,16.695520000000002,42.53073Q16.62032,42.71228,16.52768,42.88559Q16.43505,43.05889,16.325879999999998,43.22228Q16.2167,43.38567,16.09204,43.53757Q15.96738,43.68948,15.82843,43.82843Q15.68948,43.96738,15.537569999999999,44.09204Q15.385670000000001,44.2167,15.22228,44.32588Q15.05889,44.435050000000004,14.88559,44.527680000000004Q14.71228,44.62032,14.53073,44.69552Q14.34918,44.77072,14.16114,44.82776Q13.97309,44.8848,13.78036,44.923140000000004Q13.58763,44.96148,13.39207,44.98074Q13.19651,45,13,45Q12.80349,45,12.60793,44.98074Q12.41237,44.96148,12.21964,44.923140000000004Q12.02691,44.8848,11.83886,44.82776Q11.65082,44.77072,11.46927,44.69552Q11.28772,44.62032,11.11441,44.527680000000004Q10.94111,44.435050000000004,10.77772,44.32588Q10.61433,44.2167,10.46243,44.09204Q10.31052,43.96738,10.17157,43.82843Q10.03262,43.68948,9.907958,43.53757Q9.783295,43.38567,9.674121,43.22228Q9.564948,43.05889,9.472315,42.88559Q9.379682,42.71228,9.304482,42.53073Q9.229282,42.34918,9.172239,42.16114Q9.115196,41.97309,9.0768589,41.78036Q9.0385222,41.58763,9.0192611,41.392070000000004Q9,41.19651,9,41Q9,40.80349,9.0192611,40.60793Q9.0385222,40.41237,9.0768589,40.21964Q9.115196,40.02691,9.172239,39.83886Q9.229282,39.65082,9.304482,39.46927Q9.379682,39.28772,9.472315,39.11441Q9.564948,38.94111,9.674121,38.77772Q9.783295,38.61433,9.907958,38.46243Q10.03262,38.31052,10.17157,38.17157Q10.31052,38.03262,10.46243,37.907958Q10.61433,37.783295,10.77772,37.674121Q10.94111,37.564948,11.11441,37.472315Q11.28772,37.379682,11.46927,37.304482Q11.65082,37.229282,11.83886,37.172239Q12.02691,37.115196,12.21964,37.0768589Q12.41237,37.0385222,12.60793,37.0192611Q12.80349,37,13,37Q13.19651,37,13.39207,37.0192611Q13.58763,37.0385222,13.78036,37.0768589Q13.97309,37.115196,14.16114,37.172239Q14.34918,37.229282,14.53073,37.304482Q14.71228,37.379682,14.88559,37.472315Q15.05889,37.564948,15.22228,37.674121Q15.385670000000001,37.783295,15.537569999999999,37.907958Q15.68948,38.03262,15.82843,38.17157Q15.96738,38.31052,16.09204,38.46243Q16.2167,38.61433,16.325879999999998,38.77772Q16.43505,38.94111,16.52768,39.11441Q16.62032,39.28772,16.695520000000002,39.46927Q16.77072,39.65082,16.827759999999998,39.83886Q16.8848,40.02691,16.92314,40.21964Q16.96148,40.41237,16.98074,40.60793Q17,40.80349,17,41ZM16,41Q16,40.85262,15.98555,40.70595Q15.97111,40.55928,15.942350000000001,40.41473Q15.913599999999999,40.270179999999996,15.87082,40.12915Q15.82804,39.98811,15.77164,39.85195Q15.71524,39.71579,15.64576,39.58581Q15.57629,39.45583,15.49441,39.33329Q15.41253,39.21075,15.31903,39.09682Q15.22553,38.98289,15.12132,38.87868Q15.017109999999999,38.77447,14.903179999999999,38.68097Q14.78925,38.58747,14.66671,38.50559Q14.544170000000001,38.42371,14.41419,38.35424Q14.28421,38.28476,14.14805,38.22836Q14.011890000000001,38.17196,13.87085,38.12918Q13.72982,38.0864,13.585270000000001,38.05764Q13.440719999999999,38.02889,13.29405,38.01445Q13.14738,38,13,38Q12.85262,38,12.70595,38.01445Q12.559280000000001,38.02889,12.41473,38.05764Q12.27018,38.0864,12.12915,38.12918Q11.988109999999999,38.17196,11.85195,38.22836Q11.71579,38.28476,11.58581,38.35424Q11.45583,38.42371,11.33329,38.50559Q11.21075,38.58747,11.096820000000001,38.68097Q10.98289,38.77447,10.87868,38.87868Q10.77447,38.98289,10.68097,39.09682Q10.58747,39.21075,10.50559,39.33329Q10.42371,39.45583,10.35424,39.58581Q10.28476,39.71579,10.22836,39.85195Q10.17196,39.98811,10.12918,40.12915Q10.0864,40.270179999999996,10.05764,40.41473Q10.02889,40.55928,10.01445,40.70595Q10,40.85262,10,41Q10,41.14738,10.01445,41.29405Q10.02889,41.44072,10.05764,41.58527Q10.0864,41.729820000000004,10.12918,41.87085Q10.17196,42.01189,10.22836,42.14805Q10.28476,42.28421,10.35424,42.41419Q10.42371,42.54417,10.50559,42.66671Q10.58747,42.78925,10.68097,42.90318Q10.77447,43.01711,10.87868,43.12132Q10.98289,43.22553,11.096820000000001,43.31903Q11.21075,43.412530000000004,11.33329,43.49441Q11.45583,43.57629,11.58581,43.64576Q11.71579,43.71524,11.85195,43.77164Q11.988109999999999,43.82804,12.12915,43.87082Q12.27018,43.9136,12.41473,43.94236Q12.559280000000001,43.97111,12.70595,43.98555Q12.85262,44,13,44Q13.14738,44,13.29405,43.98555Q13.440719999999999,43.97111,13.585270000000001,43.94235Q13.72982,43.9136,13.87085,43.87082Q14.011890000000001,43.82804,14.14805,43.77164Q14.28421,43.71524,14.41419,43.64576Q14.544170000000001,43.57629,14.66671,43.49441Q14.78925,43.412530000000004,14.903179999999999,43.31903Q15.017109999999999,43.22553,15.12132,43.12132Q15.22553,43.01711,15.31903,42.90318Q15.41253,42.78925,15.49441,42.66671Q15.57629,42.54417,15.64576,42.41419Q15.71524,42.28421,15.77164,42.14805Q15.82804,42.01189,15.87082,41.87085Q15.913599999999999,41.729820000000004,15.94236,41.58527Q15.97111,41.44072,15.98555,41.29405Q16,41.14738,16,41Z" fill="#FFFFFF" fill-opacity="0.15000000596046448"/></g><g><ellipse cx="27" cy="13" rx="4" ry="4" fill="#FFFFFF" fill-opacity="0.550000011920929"/></g><g><ellipse cx="27" cy="27" rx="4" ry="4" fill="#FFFFFF" fill-opacity="0.550000011920929"/></g><g><ellipse cx="27" cy="41" rx="4" ry="4" fill="#FFFFFF" fill-opacity="0.550000011920929"/></g><g><ellipse cx="41" cy="13" rx="4" ry="4" fill="#FFFFFF" fill-opacity="0.550000011920929"/></g><g><ellipse cx="41" cy="27" rx="4" ry="4" fill="#FFFFFF" fill-opacity="0.550000011920929"/></g><g><path d="M45,41Q45,41.19651,44.98074,41.392070000000004Q44.96148,41.58763,44.923140000000004,41.78036Q44.8848,41.97309,44.82776,42.16114Q44.77072,42.34918,44.69552,42.53073Q44.62032,42.71228,44.527680000000004,42.88559Q44.435050000000004,43.05889,44.32588,43.22228Q44.2167,43.38567,44.09204,43.53757Q43.96738,43.68948,43.82843,43.82843Q43.68948,43.96738,43.53757,44.09204Q43.38567,44.2167,43.22228,44.32588Q43.05889,44.435050000000004,42.88559,44.527680000000004Q42.71228,44.62032,42.53073,44.69552Q42.34918,44.77072,42.16114,44.82776Q41.97309,44.8848,41.78036,44.923140000000004Q41.58763,44.96148,41.392070000000004,44.98074Q41.19651,45,41,45Q40.80349,45,40.60793,44.98074Q40.41237,44.96148,40.21964,44.923140000000004Q40.02691,44.8848,39.83886,44.82776Q39.65082,44.77072,39.46927,44.69552Q39.28772,44.62032,39.11441,44.527680000000004Q38.94111,44.435050000000004,38.77772,44.32588Q38.61433,44.2167,38.46243,44.09204Q38.31052,43.96738,38.17157,43.82843Q38.03262,43.68948,37.907958,43.53757Q37.783295,43.38567,37.674121,43.22228Q37.564948,43.05889,37.472315,42.88559Q37.379682,42.71228,37.304482,42.53073Q37.229282,42.34918,37.172239,42.16114Q37.115196,41.97309,37.0768589,41.78036Q37.0385222,41.58763,37.0192611,41.392070000000004Q37,41.19651,37,41Q37,40.80349,37.0192611,40.60793Q37.0385222,40.41237,37.0768589,40.21964Q37.115196,40.02691,37.172239,39.83886Q37.229282,39.65082,37.304482,39.46927Q37.379682,39.28772,37.472315,39.11441Q37.564948,38.94111,37.674121,38.77772Q37.783295,38.61433,37.907958,38.46243Q38.03262,38.31052,38.17157,38.17157Q38.31052,38.03262,38.46243,37.907958Q38.61433,37.783295,38.77772,37.674121Q38.94111,37.564948,39.11441,37.472315Q39.28772,37.379682,39.46927,37.304482Q39.65082,37.229282,39.83886,37.172239Q40.02691,37.115196,40.21964,37.0768589Q40.41237,37.0385222,40.60793,37.0192611Q40.80349,37,41,37Q41.19651,37,41.392070000000004,37.0192611Q41.58763,37.0385222,41.78036,37.0768589Q41.97309,37.115196,42.16114,37.172239Q42.34918,37.229282,42.53073,37.304482Q42.71228,37.379682,42.88559,37.472315Q43.05889,37.564948,43.22228,37.674121Q43.38567,37.783295,43.53757,37.907958Q43.68948,38.03262,43.82843,38.17157Q43.96738,38.31052,44.09204,38.46243Q44.2167,38.61433,44.32588,38.77772Q44.435050000000004,38.94111,44.527680000000004,39.11441Q44.62032,39.28772,44.69552,39.46927Q44.77072,39.65082,44.82776,39.83886Q44.8848,40.02691,44.923140000000004,40.21964Q44.96148,40.41237,44.98074,40.60793Q45,40.80349,45,41ZM44,41Q44,40.85262,43.98555,40.70595Q43.97111,40.55928,43.94235,40.41473Q43.9136,40.270179999999996,43.87082,40.12915Q43.82804,39.98811,43.77164,39.85195Q43.71524,39.71579,43.64576,39.58581Q43.57629,39.45583,43.49441,39.33329Q43.412530000000004,39.21075,43.31903,39.09682Q43.22553,38.98289,43.12132,38.87868Q43.01711,38.77447,42.90318,38.68097Q42.78925,38.58747,42.66671,38.50559Q42.54417,38.42371,42.41419,38.35424Q42.28421,38.28476,42.14805,38.22836Q42.01189,38.17196,41.87085,38.12918Q41.729820000000004,38.0864,41.58527,38.05764Q41.44072,38.02889,41.29405,38.01445Q41.14738,38,41,38Q40.85262,38,40.70595,38.01445Q40.55928,38.02889,40.41473,38.05764Q40.270179999999996,38.0864,40.12915,38.12918Q39.98811,38.17196,39.85195,38.22836Q39.71579,38.28476,39.58581,38.35424Q39.45583,38.42371,39.33329,38.50559Q39.21075,38.58747,39.09682,38.68097Q38.98289,38.77447,38.87868,38.87868Q38.77447,38.98289,38.68097,39.09682Q38.58747,39.21075,38.50559,39.33329Q38.42371,39.45583,38.35424,39.58581Q38.28476,39.71579,38.22836,39.85195Q38.17196,39.98811,38.12918,40.12915Q38.0864,40.270179999999996,38.05764,40.41473Q38.02889,40.55928,38.01445,40.70595Q38,40.85262,38,41Q38,41.14738,38.01445,41.29405Q38.02889,41.44072,38.05764,41.58527Q38.0864,41.729820000000004,38.12918,41.87085Q38.17196,42.01189,38.22836,42.14805Q38.28476,42.28421,38.35424,42.41419Q38.42371,42.54417,38.50559,42.66671Q38.58747,42.78925,38.68097,42.90318Q38.77447,43.01711,38.87868,43.12132Q38.98289,43.22553,39.09682,43.31903Q39.21075,43.412530000000004,39.33329,43.49441Q39.45583,43.57629,39.58581,43.64576Q39.71579,43.71524,39.85195,43.77164Q39.98811,43.82804,40.12915,43.87082Q40.270179999999996,43.9136,40.41473,43.94236Q40.55928,43.97111,40.70595,43.98555Q40.85262,44,41,44Q41.14738,44,41.29405,43.98555Q41.44072,43.97111,41.58527,43.94235Q41.729820000000004,43.9136,41.87085,43.87082Q42.01189,43.82804,42.14805,43.77164Q42.28421,43.71524,42.41419,43.64576Q42.54417,43.57629,42.66671,43.49441Q42.78925,43.412530000000004,42.90318,43.31903Q43.01711,43.22553,43.12132,43.12132Q43.22553,43.01711,43.31903,42.90318Q43.412530000000004,42.78925,43.49441,42.66671Q43.57629,42.54417,43.64576,42.41419Q43.71524,42.28421,43.77164,42.14805Q43.82804,42.01189,43.87082,41.87085Q43.9136,41.729820000000004,43.94236,41.58527Q43.97111,41.44072,43.98555,41.29405Q44,41.14738,44,41Z" fill="#FFFFFF" fill-opacity="0.15000000596046448"/></g></g></svg>