<svg xmlns="http://www.w3.org/2000/svg" xmlns:xlink="http://www.w3.org/1999/xlink" fill="none" version="1.1" width="54" height="54" viewBox="0 0 54 54"><g><g><rect x="0.5" y="0.5" width="53" height="53" rx="9.5" fill-opacity="0" stroke-opacity="0.15000000596046448" stroke="#FFFFFF" fill="none" stroke-width="1"/></g><g><ellipse cx="13" cy="13" rx="4" ry="4" fill="#FFFFFF" fill-opacity="0.550000011920929"/></g><g><ellipse cx="13" cy="27" rx="4" ry="4" fill="#FFFFFF" fill-opacity="0.550000011920929"/></g><g><ellipse cx="13" cy="41" rx="4" ry="4" fill="#FFFFFF" fill-opacity="0.550000011920929"/></g><g><ellipse cx="27" cy="13" rx="4" ry="4" fill="#FFFFFF" fill-opacity="0.550000011920929"/></g><g><path d="M31,27Q31,27.19651,30.98074,27.39207Q30.96148,27.58763,30.92314,27.78036Q30.8848,27.97309,30.827759999999998,28.16114Q30.77072,28.34918,30.695520000000002,28.53073Q30.62032,28.71228,30.52768,28.88559Q30.43505,29.058889999999998,30.325879999999998,29.222279999999998Q30.2167,29.38567,30.09204,29.53757Q29.96738,29.68948,29.82843,29.82843Q29.68948,29.96738,29.53757,30.09204Q29.38567,30.2167,29.222279999999998,30.325879999999998Q29.058889999999998,30.43505,28.88559,30.52768Q28.71228,30.62032,28.53073,30.695520000000002Q28.34918,30.77072,28.16114,30.827759999999998Q27.97309,30.8848,27.78036,30.92314Q27.58763,30.96148,27.39207,30.98074Q27.19651,31,27,31Q26.80349,31,26.60793,30.98074Q26.41237,30.96148,26.21964,30.92314Q26.02691,30.8848,25.83886,30.827759999999998Q25.65082,30.77072,25.46927,30.695520000000002Q25.28772,30.62032,25.11441,30.52768Q24.94111,30.43505,24.77772,30.325879999999998Q24.61433,30.2167,24.46243,30.09204Q24.31052,29.96738,24.17157,29.82843Q24.03262,29.68948,23.907958,29.53757Q23.783295,29.38567,23.674121,29.222279999999998Q23.564948,29.058889999999998,23.472315,28.88559Q23.379682,28.71228,23.304482,28.53073Q23.229282,28.34918,23.172239,28.16114Q23.115196,27.97309,23.0768589,27.78036Q23.0385222,27.58763,23.0192611,27.39207Q23,27.19651,23,27Q23,26.80349,23.0192611,26.60793Q23.0385222,26.41237,23.0768589,26.21964Q23.115196,26.02691,23.172239,25.83886Q23.229282,25.65082,23.304482,25.46927Q23.379682,25.28772,23.472315,25.11441Q23.564948,24.94111,23.674121,24.77772Q23.783295,24.61433,23.907958,24.46243Q24.03262,24.31052,24.17157,24.17157Q24.31052,24.03262,24.46243,23.907958Q24.61433,23.783295,24.77772,23.674121Q24.94111,23.564948,25.11441,23.472315Q25.28772,23.379682,25.46927,23.304482Q25.65082,23.229282,25.83886,23.172239Q26.02691,23.115196,26.21964,23.0768589Q26.41237,23.0385222,26.60793,23.0192611Q26.80349,23,27,23Q27.19651,23,27.39207,23.0192611Q27.58763,23.0385222,27.78036,23.0768589Q27.97309,23.115196,28.16114,23.172239Q28.34918,23.229282,28.53073,23.304482Q28.71228,23.379682,28.88559,23.472315Q29.058889999999998,23.564948,29.222279999999998,23.674121Q29.38567,23.783295,29.53757,23.907958Q29.68948,24.03262,29.82843,24.17157Q29.96738,24.31052,30.09204,24.46243Q30.2167,24.61433,30.325879999999998,24.77772Q30.43505,24.94111,30.52768,25.11441Q30.62032,25.28772,30.695520000000002,25.46927Q30.77072,25.65082,30.827759999999998,25.83886Q30.8848,26.02691,30.92314,26.21964Q30.96148,26.41237,30.98074,26.60793Q31,26.80349,31,27ZM30,27Q30,26.85262,29.98555,26.70595Q29.97111,26.55928,29.94235,26.41473Q29.9136,26.27018,29.870820000000002,26.12915Q29.82804,25.98811,29.771639999999998,25.85195Q29.71524,25.71579,29.64576,25.58581Q29.57629,25.45583,29.494410000000002,25.333289999999998Q29.41253,25.21075,29.319029999999998,25.09682Q29.22553,24.98289,29.12132,24.87868Q29.01711,24.77447,28.90318,24.68097Q28.78925,24.58747,28.666710000000002,24.50559Q28.54417,24.42371,28.414189999999998,24.35424Q28.28421,24.28476,28.148049999999998,24.22836Q28.01189,24.17196,27.87085,24.12918Q27.72982,24.0864,27.58527,24.05764Q27.44072,24.02889,27.29405,24.01445Q27.14738,24,27,24Q26.85262,24,26.70595,24.01445Q26.55928,24.02889,26.41473,24.05764Q26.27018,24.0864,26.12915,24.12918Q25.98811,24.17196,25.85195,24.22836Q25.71579,24.28476,25.58581,24.35424Q25.45583,24.42371,25.333289999999998,24.50559Q25.21075,24.58747,25.09682,24.68097Q24.98289,24.77447,24.87868,24.87868Q24.77447,24.98289,24.68097,25.09682Q24.58747,25.21075,24.50559,25.333289999999998Q24.42371,25.45583,24.35424,25.58581Q24.28476,25.71579,24.22836,25.85195Q24.17196,25.98811,24.12918,26.12915Q24.0864,26.27018,24.05764,26.41473Q24.02889,26.55928,24.01445,26.70595Q24,26.85262,24,27Q24,27.14738,24.01445,27.29405Q24.02889,27.44072,24.05764,27.58527Q24.0864,27.72982,24.12918,27.87085Q24.17196,28.01189,24.22836,28.148049999999998Q24.28476,28.28421,24.35424,28.414189999999998Q24.42371,28.54417,24.50559,28.666710000000002Q24.58747,28.78925,24.68097,28.90318Q24.77447,29.01711,24.87868,29.12132Q24.98289,29.22553,25.09682,29.319029999999998Q25.21075,29.41253,25.333289999999998,29.494410000000002Q25.45583,29.57629,25.58581,29.64576Q25.71579,29.71524,25.85195,29.771639999999998Q25.98811,29.82804,26.12915,29.870820000000002Q26.27018,29.9136,26.41473,29.94236Q26.55928,29.97111,26.70595,29.98555Q26.85262,30,27,30Q27.14738,30,27.29405,29.98555Q27.44072,29.97111,27.58527,29.94235Q27.72982,29.9136,27.87085,29.870820000000002Q28.01189,29.82804,28.148049999999998,29.771639999999998Q28.28421,29.71524,28.414189999999998,29.64576Q28.54417,29.57629,28.666710000000002,29.494410000000002Q28.78925,29.41253,28.90318,29.319029999999998Q29.01711,29.22553,29.12132,29.12132Q29.22553,29.01711,29.319029999999998,28.90318Q29.41253,28.78925,29.494410000000002,28.666710000000002Q29.57629,28.54417,29.64576,28.414189999999998Q29.71524,28.28421,29.771639999999998,28.148049999999998Q29.82804,28.01189,29.870820000000002,27.87085Q29.9136,27.72982,29.94236,27.58527Q29.97111,27.44072,29.98555,27.29405Q30,27.14738,30,27Z" fill="#FFFFFF" fill-opacity="0.15000000596046448"/></g><g><ellipse cx="27" cy="41" rx="4" ry="4" fill="#FFFFFF" fill-opacity="0.550000011920929"/></g><g><ellipse cx="41" cy="13" rx="4" ry="4" fill="#FFFFFF" fill-opacity="0.550000011920929"/></g><g><path d="M45,27Q45,27.19651,44.98074,27.39207Q44.96148,27.58763,44.923140000000004,27.78036Q44.8848,27.97309,44.82776,28.16114Q44.77072,28.34918,44.69552,28.53073Q44.62032,28.71228,44.527680000000004,28.88559Q44.435050000000004,29.058889999999998,44.32588,29.222279999999998Q44.2167,29.38567,44.09204,29.53757Q43.96738,29.68948,43.82843,29.82843Q43.68948,29.96738,43.53757,30.09204Q43.38567,30.2167,43.22228,30.325879999999998Q43.05889,30.43505,42.88559,30.52768Q42.71228,30.62032,42.53073,30.695520000000002Q42.34918,30.77072,42.16114,30.827759999999998Q41.97309,30.8848,41.78036,30.92314Q41.58763,30.96148,41.392070000000004,30.98074Q41.19651,31,41,31Q40.80349,31,40.60793,30.98074Q40.41237,30.96148,40.21964,30.92314Q40.02691,30.8848,39.83886,30.827759999999998Q39.65082,30.77072,39.46927,30.695520000000002Q39.28772,30.62032,39.11441,30.52768Q38.94111,30.43505,38.77772,30.325879999999998Q38.61433,30.2167,38.46243,30.09204Q38.31052,29.96738,38.17157,29.82843Q38.03262,29.68948,37.907958,29.53757Q37.783295,29.38567,37.674121,29.222279999999998Q37.564948,29.058889999999998,37.472315,28.88559Q37.379682,28.71228,37.304482,28.53073Q37.229282,28.34918,37.172239,28.16114Q37.115196,27.97309,37.0768589,27.78036Q37.0385222,27.58763,37.0192611,27.39207Q37,27.19651,37,27Q37,26.80349,37.0192611,26.60793Q37.0385222,26.41237,37.0768589,26.21964Q37.115196,26.02691,37.172239,25.83886Q37.229282,25.65082,37.304482,25.46927Q37.379682,25.28772,37.472315,25.11441Q37.564948,24.94111,37.674121,24.77772Q37.783295,24.61433,37.907958,24.46243Q38.03262,24.31052,38.17157,24.17157Q38.31052,24.03262,38.46243,23.907958Q38.61433,23.783295,38.77772,23.674121Q38.94111,23.564948,39.11441,23.472315Q39.28772,23.379682,39.46927,23.304482Q39.65082,23.229282,39.83886,23.172239Q40.02691,23.115196,40.21964,23.0768589Q40.41237,23.0385222,40.60793,23.0192611Q40.80349,23,41,23Q41.19651,23,41.392070000000004,23.0192611Q41.58763,23.0385222,41.78036,23.0768589Q41.97309,23.115196,42.16114,23.172239Q42.34918,23.229282,42.53073,23.304482Q42.71228,23.379682,42.88559,23.472315Q43.05889,23.564948,43.22228,23.674121Q43.38567,23.783295,43.53757,23.907958Q43.68948,24.03262,43.82843,24.17157Q43.96738,24.31052,44.09204,24.46243Q44.2167,24.61433,44.32588,24.77772Q44.435050000000004,24.94111,44.527680000000004,25.11441Q44.62032,25.28772,44.69552,25.46927Q44.77072,25.65082,44.82776,25.83886Q44.8848,26.02691,44.923140000000004,26.21964Q44.96148,26.41237,44.98074,26.60793Q45,26.80349,45,27ZM44,27Q44,26.85262,43.98555,26.70595Q43.97111,26.55928,43.94235,26.41473Q43.9136,26.27018,43.87082,26.12915Q43.82804,25.98811,43.77164,25.85195Q43.71524,25.71579,43.64576,25.58581Q43.57629,25.45583,43.49441,25.333289999999998Q43.412530000000004,25.21075,43.31903,25.09682Q43.22553,24.98289,43.12132,24.87868Q43.01711,24.77447,42.90318,24.68097Q42.78925,24.58747,42.66671,24.50559Q42.54417,24.42371,42.41419,24.35424Q42.28421,24.28476,42.14805,24.22836Q42.01189,24.17196,41.87085,24.12918Q41.729820000000004,24.0864,41.58527,24.05764Q41.44072,24.02889,41.29405,24.01445Q41.14738,24,41,24Q40.85262,24,40.70595,24.01445Q40.55928,24.02889,40.41473,24.05764Q40.270179999999996,24.0864,40.12915,24.12918Q39.98811,24.17196,39.85195,24.22836Q39.71579,24.28476,39.58581,24.35424Q39.45583,24.42371,39.33329,24.50559Q39.21075,24.58747,39.09682,24.68097Q38.98289,24.77447,38.87868,24.87868Q38.77447,24.98289,38.68097,25.09682Q38.58747,25.21075,38.50559,25.333289999999998Q38.42371,25.45583,38.35424,25.58581Q38.28476,25.71579,38.22836,25.85195Q38.17196,25.98811,38.12918,26.12915Q38.0864,26.27018,38.05764,26.41473Q38.02889,26.55928,38.01445,26.70595Q38,26.85262,38,27Q38,27.14738,38.01445,27.29405Q38.02889,27.44072,38.05764,27.58527Q38.0864,27.72982,38.12918,27.87085Q38.17196,28.01189,38.22836,28.148049999999998Q38.28476,28.28421,38.35424,28.414189999999998Q38.42371,28.54417,38.50559,28.666710000000002Q38.58747,28.78925,38.68097,28.90318Q38.77447,29.01711,38.87868,29.12132Q38.98289,29.22553,39.09682,29.319029999999998Q39.21075,29.41253,39.33329,29.494410000000002Q39.45583,29.57629,39.58581,29.64576Q39.71579,29.71524,39.85195,29.771639999999998Q39.98811,29.82804,40.12915,29.870820000000002Q40.270179999999996,29.9136,40.41473,29.94236Q40.55928,29.97111,40.70595,29.98555Q40.85262,30,41,30Q41.14738,30,41.29405,29.98555Q41.44072,29.97111,41.58527,29.94235Q41.729820000000004,29.9136,41.87085,29.870820000000002Q42.01189,29.82804,42.14805,29.771639999999998Q42.28421,29.71524,42.41419,29.64576Q42.54417,29.57629,42.66671,29.494410000000002Q42.78925,29.41253,42.90318,29.319029999999998Q43.01711,29.22553,43.12132,29.12132Q43.22553,29.01711,43.31903,28.90318Q43.412530000000004,28.78925,43.49441,28.666710000000002Q43.57629,28.54417,43.64576,28.414189999999998Q43.71524,28.28421,43.77164,28.148049999999998Q43.82804,28.01189,43.87082,27.87085Q43.9136,27.72982,43.94236,27.58527Q43.97111,27.44072,43.98555,27.29405Q44,27.14738,44,27Z" fill="#FFFFFF" fill-opacity="0.15000000596046448"/></g><g><ellipse cx="41" cy="41" rx="4" ry="4" fill="#FFFFFF" fill-opacity="0.550000011920929"/></g></g></svg>